<svg xmlns="http://www.w3.org/2000/svg" width="1063.4" height="907.205" viewBox="0 0 1063.4 907.205">
  <g id="Splash3" transform="translate(260.313 383.5)">
    <path id="Path_78" data-name="Path 78" d="M57,0c31.48,0,57,22.61,57,50.5S88.48,101,57,101,0,78.39,0,50.5,25.52,0,57,0Z" transform="translate(213.63 8.111)" fill="#ffdead"/>
    <path id="Path_76" data-name="Path 76" d="M413.457,0C641.8,0,826.915,164.805,826.915,368.1s-185.111,368.1-413.457,368.1S0,571.4,0,368.1,185.111,0,413.457,0Z" transform="translate(-145.813 -299)" fill="none" stroke="#2f2c41" stroke-width="1"/>
    <path id="Path_77" data-name="Path 77" d="M531.2,0c293.374,0,531.2,202.861,531.2,453.1s-237.826,453.1-531.2,453.1S0,703.345,0,453.1C0,307.713,80.28,178.317,205.012,95.46,295.1,35.615,408.275,0,531.2,0Z" transform="translate(-259.813 -383)" fill="none" stroke="#2f2c41" stroke-width="1"/>
  </g>
</svg>
